<svg xmlns="http://www.w3.org/2000/svg" viewBox="0 0 452.35 52"><defs><style>.cls-1{fill:#0a1628}</style></defs><g id="Layer_2" data-name="Layer 2"><g id="Layer_1-2" data-name="Layer 1"><path class="cls-1" d="M37.52 29.65c-3.52 4.89-8.76 2.79-16.22 7.41-4.22 2.61-9.06 7.65-13.83 13.57l5.44-20.78S-.11 15.79 0 15.74s17.35 0 17.35 0L26 0l8.7 15.74h17.35c-8.95 2.85-11.17 9.2-14.53 13.91"/><path class="cls-1" d="M19.57 50.83H35.1s-4.68-6.45 4.44-10.49c7-3.07 6.14-12.22 6.46-15.33s4.06-6.52 6.25-7.46c-3.12.76-6.43 3-9.48 9.08-3.63 7.26-4.59 8.93-11.77 11.24-5.65 1.81-10.09 8.67-11.41 13"/><path class="cls-1" d="M43.58 50.83h9.88c-2.91-2.68-4.44-6.52-1.81-12.71 1.74-4.1.89-5.79-.61-8.47s-3.13-5.39 1.62-10.28C49 21.21 47.34 23.84 48 28.85c.78 5.81-.11 9.33-3 11.9s-3.54 6.1-1.41 10.08M70 23.46h-4.59a6.73 6.73 0 00-4.27 1.24v-8.6h27.48v8.6a6.71 6.71 0 00-4.27-1.24h-4.61v22.62a8.79 8.79 0 001.16 4.7h-12a8.72 8.72 0 001.1-4.7zm20.82 1.39a7.6 7.6 0 00-1-4.07h19.45v7.44a4.86 4.86 0 00-3.32-1.07h-6.73v5.18h5.33a5.82 5.82 0 003.7-1.07v8.51a5.82 5.82 0 00-3.7-1.07h-5.33v5.71h6.72a6.89 6.89 0 004.06-1.07v7.44H89.81a7.6 7.6 0 001-4.07z"/><path class="cls-1" d="M118.93 35l-5.53-9.9a24.22 24.22 0 00-3-4.32H122a2.76 2.76 0 00-.52 1.36c0 .73.9 2.38 1.76 3.94l2 3.74 1.76-3.74a16 16 0 001.49-3.94 2.26 2.26 0 00-.6-1.36H137a19.88 19.88 0 00-3 4.32l-5.37 9.9 6.27 11.42a21.38 21.38 0 003 4.32h-11.73a2.47 2.47 0 00.52-1.36c0-.74-.82-2.26-1.64-3.94l-2.43-5-2.8 5c-1 1.89-1.6 3-1.6 4a2.14 2.14 0 00.59 1.28h-9.07a16.08 16.08 0 003-4.32z"/><path class="cls-1" d="M143.49 24.27a7.29 7.29 0 00.45-1.72 5.28 5.28 0 00-.68-1.77h9.19l9.62 27.33a12.3 12.3 0 001.57 2.67h-10.75a3.16 3.16 0 00.68-1.69 4.26 4.26 0 00-.23-1.19l-1.45-4.23h-9.11l-1.34 4.23a5.7 5.7 0 00-.15 1.19 3 3 0 00.63 1.69h-8.55A7.43 7.43 0 00135 47.9zm1 13.85h5.78l-2.83-8.63zm39.2-6.78c-1.94-1.76-5.11-4.81-9.48-4.81-1.42 0-3.32.74-3.32 2.1 0 2.18 1.79 2.34 6.86 4.11 3.63 1.27 7.36 3.28 7.36 8.75 0 7.4-6.16 9.9-11.27 9.9-4.34 0-7.66-2.21-8.7-2.21a3.2 3.2 0 00-1.57.65v-9.41c2.13 1.73 4.78 4.6 9.89 4.6 1.57 0 3.66-.45 3.66-2.13 0-2.26-3-2.34-7.84-4.48-3.17-1.4-6.05-3.62-6.05-8.63 0-5.22 3.74-9.61 10.75-9.61 5 0 6.76 2.26 8.59 2.26a1.71 1.71 0 001.12-.66zm43.24 16.4a23.58 23.58 0 01-12.34 3.75c-10.66 0-17.6-7-17.6-18.05 0-11.73 8.41-18.06 17.17-18.06 5.65 0 7.77 2.57 9.67 2.57a2.77 2.77 0 001.56-.62V27.6c-2.38-1.86-5-4.85-9.93-4.85-4 0-8.76 4-8.76 10.69s3.88 10.68 8.76 10.68a5.58 5.58 0 001.77-.33v-4.7a5.9 5.9 0 00-1.17-3.75h12a5.9 5.9 0 00-1.17 3.75zm26.65-8.51c0 5.71-1.83 12.16-11.2 12.16-10 0-11.87-4.52-11.87-12.16V24.85a7.51 7.51 0 00-1-4.07h10.42a7.6 7.6 0 00-1 4.07v14.38c0 3.21.26 5.79 4.18 5.79 3.7 0 4.71-2 4.71-5.79V24.85a7.6 7.6 0 00-1-4.07h7.8a7.51 7.51 0 00-1 4.07zm3.21 11.55a7.51 7.51 0 001-4.07V24.85a7.51 7.51 0 00-1-4.07h10.42a7.51 7.51 0 00-1 4.07v19.56h6.72a5.85 5.85 0 003.7-1.07v7.44zm21.84-25.93a7.6 7.6 0 00-1-4.07h19.45v7.44a4.86 4.86 0 00-3.32-1.07H287v5.18h5.33a5.82 5.82 0 003.7-1.07v8.51a5.82 5.82 0 00-3.7-1.07H287v8a7.51 7.51 0 001 4.07h-10.38a7.6 7.6 0 001-4.07zm31.61-4.05a8.72 8.72 0 00-1.17-4.7h15.19c4.36 0 12.26 1.09 12.26 8.69 0 6.61-5 7.56-7.34 8v.09c3.72 0 9.63 1.62 9.63 8.32 0 8.79-9.37 9.55-13.16 9.55h-16.58a8.72 8.72 0 001.17-4.7zm9.76 8.84h2.76c1.64 0 4.1-.1 4.1-3s-2-3.14-4-3.14H320zm0 13.78h3.11c3.14 0 6-.1 6-3.56 0-3.71-2.9-3.81-6-3.81H320zm27.45-19.15a7.29 7.29 0 00.45-1.72 5.24 5.24 0 00-.67-1.77h9.18L366 48.11a11.91 11.91 0 001.57 2.67h-10.71a3.15 3.15 0 00.67-1.68 4.25 4.25 0 00-.22-1.2l-1.46-4.23h-9.11l-1.34 4.23a6.45 6.45 0 00-.15 1.2 3.06 3.06 0 00.64 1.68h-8.55A7.48 7.48 0 00339 47.9zm1 13.85h5.79l-2.84-8.63z"/><path class="cls-1" d="M366.83 50.78a7.32 7.32 0 001-4.07V24.85a7.32 7.32 0 00-1-4.07h9.63l11.08 17.06h.08v-13a7.6 7.6 0 00-1-4.07h7.84a7.34 7.34 0 00-1.05 4.07v25.94h-6.79L373.73 31.5h-.07v15.21a7.58 7.58 0 001 4.07zm31.61-25.93a7.58 7.58 0 00-1-4.07h10.41a7.6 7.6 0 00-1 4.07v7.72h.08l6.68-9.12a2.71 2.71 0 00.63-1.56 2.26 2.26 0 00-.44-1.11h10.52a13.31 13.31 0 00-2.83 2.84l-5.27 6.66 7.5 18.11a8.72 8.72 0 001.46 2.39h-9.59l-5.19-14.05-3.55 4.56v5.42a7.6 7.6 0 001 4.07h-10.41a7.58 7.58 0 001-4.07zm29.19 26.69a3.19 3.19 0 00.94-1.27c-.26 0-.88-.06-.88-.73a.8.8 0 01.79-.84 1 1 0 01.88 1.06A3 3 0 01428 52zm3.67-8.83a.73.73 0 00-.36-.7h2.16l4 5.65v-4.95a.76.76 0 00-.37-.7h1.9a.77.77 0 00-.35.7v7.48h-1.46l-4.37-6.1v5.4a.76.76 0 00.36.7h-1.9a.78.78 0 00.36-.7zm8.28 6.83a.83.83 0 11.82.82.83.83 0 01-.82-.82m5.55-6.37a2.4 2.4 0 00.25-.81c0-.15-.14-.23-.28-.35h2.11l2.79 7.15c.26.71.42.87.65 1h-2.47c.07-.06.25-.19.25-.33a1.9 1.9 0 00-.2-.64l-.55-1.45h-3l-.51 1.35a2.68 2.68 0 00-.2.7c0 .18.2.3.28.37h-2.06a2.68 2.68 0 00.67-1.06zm2.13 3.53l-1.14-3-1.12 3zm3.43 2.84a.83.83 0 01.81-.84.83.83 0 110 1.66.82.82 0 01-.81-.82"/></g></g></svg>